<svg xmlns="http://www.w3.org/2000/svg" viewBox="0 0 120 120" width="120" height="120">
<path d="M60 10 L100 28 V66 C100 86 82 100 60 110 C38 100 20 86 20 66 V28 Z" fill="#00254c" stroke="#ff9c00" stroke-width="3"/>
<path d="M44 30 Q72 30 76 52 Q80 66 70 78 Q63 86 55 80 Q58 70 51 64 Q39 60 40 47 Q40 35 44 30 Z" fill="#cdd9e8"/>
<path d="M44 30 Q33 37 36 56 Q43 50 49 50 Q47 40 51 33 Z" fill="#ff9c00"/>
<polygon points="46,30 50,18 56,32" fill="#cdd9e8"/>
<circle cx="60" cy="47" r="3" fill="#001021"/>
<ellipse cx="67" cy="73" rx="4" ry="3" fill="#001021"/>
</svg>
